<svg display="none" xmlns="http://www.w3.org/2000/svg">
  <symbol id="rabbish-box" viewBox="0 0 448 512">
    <g>
      <path d="M53.21 467c1.562 24.84 23.02 45 47.9 45h245.8c24.88 0 46.33-20.16 47.9-45L416 128H32L53.21 467zM432 32H320l-11.58-23.16c-2.709-5.42-8.25-8.844-14.31-8.844H153.9c-6.061 0-11.6 3.424-14.31 8.844L128 32H16c-8.836 0-16 7.162-16 16V80c0 8.836 7.164 16 16 16h416c8.838 0 16-7.164 16-16V48C448 39.16 440.8 32 432 32z"></path>
    </g>
  </symbol>

  <symbol id="importance" viewBox="0 0 128 512" >
    <g>
      <path d="M64 352c17.69 0 32-14.32 32-31.1V64.01c0-17.67-14.31-32.01-32-32.01S32 46.34 32 64.01v255.1C32 337.7 46.31 352 64 352zM64 400c-22.09 0-40 17.91-40 40s17.91 39.1 40 39.1s40-17.9 40-39.1S86.09 400 64 400z"></path>
    </g>
  </symbol>
</svg>